<?xml version="1.0" encoding="utf-8"?>
<!-- Generator: Adobe Illustrator 24.0.0, SVG Export Plug-In . SVG Version: 6.00 Build 0)  -->
<svg version="1.1" id="Layer_1" xmlns="http://www.w3.org/2000/svg" xmlns:xlink="http://www.w3.org/1999/xlink" x="0px" y="0px"
	 viewBox="0 0 806.47 255.8" style="enable-background:new 0 0 806.47 255.8;" xml:space="preserve">
<style type="text/css">
	.st0{fill:#231F20;}
	.st1{fill:#FFFFFF;}
	.st2{fill:#EC1C24;}
</style>
<path class="st0" d="M692.94,152.66l15.23-88.71h38.8l59.51-63.76H593.25l-7.65,44.1h-41.38l7.83-44.1h-33.17h-35.75h-87.15
	c-13.2,0-25.88,1.98-37.67,5.88c-10.81,3.58-20.52,8.56-28.95,14.82L332.95,0l-70.51,0.71l-54.49,61.73l13.98-62.26H180.2h-23.74
	H27.12L0,156.06h69.08l7.83-45.62l53.21-0.11l-10.93,45.72h117.12l-0.03,0.18l69.75-0.22l4.76-27.56c2.32,2.86,4.88,5.55,7.68,8.03
	c6.97,6.19,15.39,11.07,25.03,14.51c9.42,3.36,19.85,5.06,31,5.06H456h14.92h28.98c-6.92,2.2-12.94,5.21-18.1,9.05
	c-13.64,10.16-20.56,25.31-20.56,45.03c0,15.49,6.51,28.25,18.31,35.93c10.07,6.55,23.79,9.73,41.94,9.73
	c18.26,0,32.84-2.86,44.24-8.68l-1.29,7.52h50.56l4.04-23.53l14.55,15.86c3.12,3.47,6.35,5.81,9.89,7.16
	c2.91,1.11,6.05,1.67,9.32,1.67c2.73,0,5.46-0.39,8.15-1.16h89.47l46.2-49.53h-23.72l23.77-25.64h-16.27l24.86-26.8H692.94z
	 M201.14,92.75l6.43-28.61h44.55l-4.95,28.8L201.14,92.75z M588.28,158.05c-2.53,2.1-4.7,4.68-6.45,7.69
	c-1.77-1.69-3.72-3.23-5.84-4.6c-10.07-6.49-23.77-9.65-41.9-9.65c-2.84,0-5.59,0.07-8.26,0.21l7.45-43.65h41.4l-8.37,48.01h24.7
	C590.07,156.67,589.15,157.33,588.28,158.05z M626.54,160.94l-0.46-0.5c-1.5-1.73-3.06-3.18-4.71-4.38h6L626.54,160.94z"/>
<path class="st1" d="M683.8,160.5l17.92-104.4h41.96l44.86-48.07H599.68l-7.65,44.1h-57l7.83-44.1h-47.1h-6.2h-93.58
	c-12.4,0-24.28,1.85-35.31,5.5c-11.13,3.68-21,8.94-29.32,15.62c-5.18,4.16-9.74,8.88-13.64,14.08l6.09-35.3l-57.9,0.58
	l-42.16,47.76h37.54l-7.66,44.52l-62.09-0.25L212.3,8.03h-41.9h-7.91H33.55L9.16,148.21h53.47l7.83-45.6l69.44-0.14l-10.94,45.74
	h116.49l-0.03,0.15l54.16-0.17l7.3-42.3c0.55,1.57,1.15,3.13,1.84,4.65c3.48,7.68,8.45,14.42,14.77,20.03
	c6.23,5.53,13.81,9.91,22.53,13.02c8.61,3.07,18.18,4.62,28.47,4.62h90.67h3.27h50.21l8.19-48.01h57.02l-8.37,48.01h53.09
	l16.1-92.52l7.59-0.07l-20.12,118.3l16.51,0.28l-3.22,18.8l-25.02-27.28c-2.27-2.63-4.63-4.36-7.23-5.27
	c-2.1-0.73-4.26-1.11-6.4-1.11c-2.36,0-4.71,0.37-6.98,1.11c-2.42,0.79-4.67,2.04-6.68,3.7c-2.06,1.7-3.8,3.89-5.17,6.47
	c-1.28,2.41-2.21,5.22-2.77,8.4l-0.75,4.4c-2.37-6.51-6.58-11.81-12.52-15.64c-8.8-5.68-21.17-8.44-37.8-8.44
	c-21.2,0-36.83,3.96-47.77,12.11c-11.55,8.6-17.4,21.61-17.4,38.69c0,12.9,5.1,23.03,14.76,29.31c8.8,5.72,21.18,8.51,37.82,8.51
	c21.21,0,36.84-3.98,47.79-12.17c2.8-2.09,5.26-4.45,7.39-7.06l-3.09,18.07h34.99l5.58-32.5l25.08,27.35
	c2.29,2.55,4.55,4.23,6.93,5.14c2.06,0.78,4.29,1.18,6.65,1.18c2.29,0,4.6-0.37,6.87-1.11c2.5-0.81,4.79-2.13,6.81-3.9
	c1.07-0.94,2.06-2.04,2.96-3.24l-1.23,7.09h78.93l31.57-33.84h-23.64l23.77-25.64h-16.28l24.86-26.8H683.8z"/>
<polygon class="st0" points="69.29,64.45 72.02,48.26 152.76,48.26 160.59,15.88 39.98,15.88 18.32,140.37 56.19,140.37 
	64.01,94.78 135.91,94.63 142.97,64.3 "/>
<polygon class="st0" points="202.66,15.88 168.51,15.88 138.74,140.37 246.33,140.37 251.87,108.65 181.89,108.36 "/>
<path class="st2" d="M366.12,90.31h63.17l-3.09,18.05h-46.24c-9.47,0-17.02-2.29-22.66-6.89c-5.64-4.59-8.46-10.79-8.46-18.61
	c0-4.96,1.12-9.55,3.37-13.77c2.24-4.22,5.25-7.88,9.01-10.98c3.76-3.1,8.16-5.52,13.2-7.26c5.03-1.74,10.34-2.61,15.93-2.61h62.8
	l30.04-32.38h-87.2c-11.65,0-22.63,1.71-32.95,5.12c-10.32,3.41-19.3,8.19-26.94,14.33c-7.65,6.14-13.71,13.49-18.2,22.05
	c-4.49,8.56-6.74,17.93-6.74,28.1c0,7.82,1.52,15.07,4.55,21.77c3.03,6.7,7.31,12.5,12.83,17.4c5.52,4.9,12.2,8.75,20.02,11.54
	c7.83,2.79,16.47,4.19,25.94,4.19h83.56l13.47-77.78H393.6L366.12,90.31z"/>
<polygon class="st2" points="643.79,15.88 632.26,15.88 606.11,15.88 598.47,59.98 525.83,59.98 533.66,15.88 495.98,15.88 
	474.32,140.37 512.18,140.37 520.37,92.36 593.01,92.36 584.63,140.37 622.13,140.37 638.22,47.91 661.39,47.69 641.22,166.22 
	674.93,166.79 695.27,48.26 740.39,48.26 770.61,15.88 "/>
<polygon class="st0" points="269.32,16.33 240.98,48.44 270.41,48.44 254.57,140.49 293.14,140.37 314.62,15.88 "/>
<path class="st2" d="M534.09,167.19c15,0,26.24,2.41,33.71,7.23c7.47,4.82,11.2,12.36,11.2,22.64c0,14.49-4.75,25.29-14.25,32.4
	c-9.5,7.11-23.92,10.66-43.25,10.66c-15,0-26.24-2.43-33.71-7.28c-7.47-4.85-11.2-12.42-11.2-22.69c0-14.49,4.75-25.27,14.25-32.34
	C500.33,170.72,514.75,167.19,534.09,167.19z M524.59,221.74c6.95,0,12.58-0.32,16.88-0.95c4.3-0.63,7.64-1.79,10.01-3.48
	c2.37-1.69,3.97-3.99,4.8-6.91c0.83-2.92,1.24-6.63,1.24-11.13c0-2.81-0.5-5.12-1.5-6.91c-1-1.79-2.58-3.2-4.75-4.22
	c-2.17-1.02-4.94-1.71-8.31-2.06c-3.37-0.35-7.4-0.53-12.08-0.53c-6.95,0-12.56,0.32-16.83,0.95c-4.27,0.63-7.59,1.79-9.96,3.48
	c-2.37,1.69-3.97,3.99-4.8,6.91c-0.83,2.92-1.24,6.63-1.24,11.13c0,2.89,0.52,5.21,1.55,6.96c1.03,1.76,2.62,3.15,4.75,4.17
	c2.13,1.02,4.87,1.71,8.21,2.06C515.9,221.57,519.91,221.74,524.59,221.74z"/>
<path class="st2" d="M652.81,240.11c-1.45,0-2.77-0.23-3.97-0.69c-1.21-0.46-2.53-1.49-3.97-3.11l-35.62-38.83l-7.12,41.47h-19.41
	l10.01-58.57c0.41-2.32,1.07-4.33,1.96-6.02c0.89-1.69,1.98-3.06,3.25-4.12c1.27-1.06,2.67-1.83,4.18-2.32
	c1.51-0.49,3.06-0.74,4.65-0.74c1.31,0,2.61,0.23,3.92,0.69c1.31,0.46,2.65,1.5,4.03,3.11l35.61,38.83l5.72-33.45h19.41l-8.72,50.44
	c-0.41,2.32-1.08,4.33-2.01,6.02c-0.93,1.69-2.01,3.08-3.25,4.17c-1.24,1.09-2.62,1.88-4.13,2.37
	C655.83,239.86,654.32,240.11,652.81,240.11z"/>
<path class="st2" d="M760.79,220.79l-16.93,18.15h-66.48l12.29-70.6h79.9l-17.03,18.36h-44.7l-1.45,8.44h54.61l-14.87,16.04H703.6
	l-1.65,9.6H760.79z"/>
</svg>
